HIERARCHY
ROOT Hips
{
	OFFSET 0.000000 0.000000 0.000000
	CHANNELS 6 Xposition Yposition Zposition Zrotation Yrotation Xrotation 
	JOINT LHipJoint
	{
		OFFSET 0.000000 0.000000 0.000000
		CHANNELS 3 Zrotation Yrotation Xrotation
		JOINT LeftUpLeg
		{
			OFFSET 1.363060 -1.794630 0.839290
			CHANNELS 3 Zrotation Yrotation Xrotation
			JOINT LeftLeg
			{
				OFFSET 2.448110 -6.726130 0.000000
				CHANNELS 3 Zrotation Yrotation Xrotation
				JOINT LeftFoot
				{
					OFFSET 2.562200 -7.039590 0.000000
					CHANNELS 3 Zrotation Yrotation Xrotation
					JOINT LeftToeBase
					{
						OFFSET 0.157640 -0.433110 2.322550
						CHANNELS 3 Zrotation Yrotation Xrotation
						End Site
						{
							OFFSET 0.000000 0.000000 0.000000
						}
					}
				}
			}
		}
	}
	JOINT RHipJoint
	{
		OFFSET 0.000000 0.000000 0.000000
		CHANNELS 3 Zrotation Yrotation Xrotation
		JOINT RightUpLeg
		{
			OFFSET -1.305520 -1.794630 0.839290
			CHANNELS 3 Zrotation Yrotation Xrotation
			JOINT RightLeg
			{
				OFFSET -2.542530 -6.985550 0.000000
				CHANNELS 3 Zrotation Yrotation Xrotation
				JOINT RightFoot
				{
					OFFSET -2.568260 -7.056230 0.000000
					CHANNELS 3 Zrotation Yrotation Xrotation
					JOINT RightToeBase
					{
						OFFSET -0.164730 -0.452590 2.363150
						CHANNELS 3 Zrotation Yrotation Xrotation
						End Site
						{
							OFFSET 0.000000 0.000000 0.000000
						}
					}
				}
			}
		}
	}
	JOINT LowerBack
	{
		OFFSET 0.000000 0.000000 0.000000
		CHANNELS 3 Zrotation Yrotation Xrotation
		JOINT Spine
		{
			OFFSET 0.028270 2.035590 -0.193380
			CHANNELS 3 Zrotation Yrotation Xrotation
			JOINT Spine1
			{
				OFFSET 0.056720 2.048850 -0.042750
				CHANNELS 3 Zrotation Yrotation Xrotation
				JOINT Neck
				{
					OFFSET 0.000000 0.000000 0.000000
					CHANNELS 3 Zrotation Yrotation Xrotation
					JOINT Neck1
					{
						OFFSET -0.054170 1.746240 0.172020
						CHANNELS 3 Zrotation Yrotation Xrotation
						JOINT Head
						{
							OFFSET 0.104070 1.761360 -0.123970
							CHANNELS 3 Zrotation Yrotation Xrotation
							End Site
							{
								OFFSET 0.000000 0.000000 0.000000
							}
						}
					}
				}
				JOINT LeftShoulder
				{
					OFFSET 0.000000 0.000000 0.000000
					CHANNELS 3 Zrotation Yrotation Xrotation
					JOINT LeftArm
					{
						OFFSET 3.362410 1.200890 -0.311210
						CHANNELS 3 Zrotation Yrotation Xrotation
						JOINT LeftForeArm
						{
							OFFSET 4.983000 -0.000000 -0.000000
							CHANNELS 3 Zrotation Yrotation Xrotation
							JOINT LeftHand
							{
								OFFSET 3.483560 -0.000000 -0.000000
								CHANNELS 3 Zrotation Yrotation Xrotation
								JOINT LeftFingerBase
								{
									OFFSET 0.000000 0.000000 0.000000
									CHANNELS 3 Zrotation Yrotation Xrotation
									JOINT LeftHandIndex1
									{
										OFFSET 0.715260 -0.000000 -0.000000
										CHANNELS 3 Zrotation Yrotation Xrotation
										End Site
										{
											OFFSET 0.000000 0.000000 0.000000
										}
									}
								}
								JOINT LThumb
								{
									OFFSET 0.000000 0.000000 0.000000
									CHANNELS 3 Zrotation Yrotation Xrotation
									End Site
									{
										OFFSET 0.000000 0.000000 0.000000
									}
								}
							}
						}
					}
				}
				JOINT RightShoulder
				{
					OFFSET 0.000000 0.000000 0.000000
					CHANNELS 3 Zrotation Yrotation Xrotation
					JOINT RightArm
					{
						OFFSET -3.136600 1.374050 -0.404650
						CHANNELS 3 Zrotation Yrotation Xrotation
						JOINT RightForeArm
						{
							OFFSET -5.241900 -0.000000 -0.000000
							CHANNELS 3 Zrotation Yrotation Xrotation
							JOINT RightHand
							{
								OFFSET -3.444170 -0.000000 -0.000000
								CHANNELS 3 Zrotation Yrotation Xrotation
								JOINT RightFingerBase
								{
									OFFSET 0.000000 0.000000 0.000000
									CHANNELS 3 Zrotation Yrotation Xrotation
									JOINT RightHandIndex1
									{
										OFFSET -0.622530 -0.000000 -0.000000
										CHANNELS 3 Zrotation Yrotation Xrotation
										End Site
										{
											OFFSET 0.000000 0.000000 0.000000
										}
									}
								}
								JOINT RThumb
								{
									OFFSET 0.000000 0.000000 0.000000
									CHANNELS 3 Zrotation Yrotation Xrotation
									End Site
									{
										OFFSET 0.000000 0.000000 0.000000
									}
								}
							}
						}
					}
				}
			}
		}
	}
}
MOTION
Frames: 11
Frame Time: 0.008333
-11.677052 16.360405 -2.267622 168.562646 82.055297 167.506268 -11.025152 6.111896 -0.557948 5.779898 19.831750 8.801876 -0.664351 2.439415 34.063790 0.406173 -2.866224 9.379885 -0.892600 -0.000000 -81.989700 8.310041 -1.430538 -0.825169 25.285480 -17.493081 -32.504396 2.700554 -0.826704 24.491351 -4.324294 -15.842106 -18.147030 -177.728600 -0.000000 -4.572200 0.845713 -5.515609 -0.927438 -0.382318 -5.728947 -2.214541 -6.492962 -5.628859 3.278536 11.138360 -20.466124 -11.621545 -2.869606 -0.168421 -1.011317 0.000000 0.000000 0.000000 1.616378 16.477802 0.941148 -31.926109 -0.652983 -7.146553 -1.035717 -65.254882 -0.014879 4.255253 0.336177 0.005581 -0.126769 0.219567 0.000000 0.000000 0.000000 0.000000 0.000000 0.000000 0.000000 19.949321 -18.983086 -0.059186 83.080956 -19.905792 -16.939743 3.986220 15.991390 0.007671 0.690680 3.827897 0.020255 0.099345 -0.027469 -0.000000 0.000000 0.000000 0.000000 0.000000 0.000000 0.000000 
-11.468102 16.348067 -2.243692 168.562745 81.737079 167.250940 -11.070348 6.104563 -0.557501 6.478163 19.473753 7.998712 -0.444601 2.600550 36.709480 0.502108 -3.808093 12.032923 -1.380499 0.000000 -80.865999 8.388745 -1.392614 -0.886144 24.832533 -17.344641 -31.736218 2.596009 -0.887128 25.330547 -4.448234 -16.289211 -18.966517 -177.384900 0.000000 -10.668700 0.831319 -5.539460 -0.865639 -0.382753 -5.751633 -2.202417 -6.474850 -5.651960 3.272670 11.106199 -20.422461 -11.599300 -2.873928 -0.169037 -1.006133 0.000000 0.000000 0.000000 1.682595 16.457028 0.955910 -32.151467 -0.325033 -7.017894 -1.065728 -64.907134 -0.013469 3.969785 0.327892 0.005072 -0.124333 0.215184 0.000000 0.000000 0.000000 0.000000 0.000000 0.000000 0.000000 19.946697 -18.938912 -0.072195 83.104701 -19.679084 -17.652285 3.998329 15.709941 0.007640 0.808952 3.800858 0.024150 0.098614 -0.028502 -0.000000 0.000000 0.000000 0.000000 0.000000 0.000000 0.000000 
-11.264722 16.336098 -2.221308 168.831329 81.479741 167.269291 -11.120198 6.063736 -0.551711 7.085808 19.011821 7.040898 -0.233891 2.746226 39.488210 0.627971 -4.384591 14.367011 -1.810700 0.000001 -78.353700 8.458082 -1.372710 -0.987794 24.493922 -17.363531 -31.139147 2.509051 -0.981032 26.410629 -4.532854 -16.591308 -19.759214 -177.053300 -0.000000 -15.153099 0.870601 -5.540437 -0.769578 -0.374889 -5.753730 -2.188318 -6.461033 -5.654756 3.256745 11.073665 -20.329266 -11.571727 -2.878617 -0.169748 -0.999815 0.000000 0.000000 0.000000 1.748305 16.418496 0.973259 -32.515487 0.030572 -6.840742 -1.105966 -64.436595 -0.012312 3.745822 0.352834 0.005870 -0.123298 0.209524 0.000000 0.000000 0.000000 0.000000 0.000000 0.000000 0.000000 19.917268 -18.833870 -0.078004 83.088174 -19.327298 -18.392319 4.008059 15.408586 0.007518 0.918576 3.724506 0.027247 0.097829 -0.029449 -0.000000 0.000000 0.000000 0.000000 0.000000 0.000000 0.000000 
-11.067254 16.324469 -2.200372 169.298878 81.298053 167.500036 -11.173633 5.994010 -0.544231 7.595048 18.468651 5.935015 -0.037241 2.882337 42.369743 0.767108 -4.547730 16.273820 -2.099500 -0.000000 -74.698300 8.516747 -1.370818 -1.121253 24.262922 -17.521750 -30.681376 2.440677 -1.098655 27.668196 -4.581890 -16.751115 -20.542921 -176.735000 0.000000 -18.291100 0.958422 -5.518042 -0.644461 -0.359610 -5.734296 -2.173116 -6.451078 -5.636400 3.231168 11.043042 -20.192248 -11.539483 -2.881704 -0.170388 -0.992441 0.000000 0.000000 0.000000 1.811629 16.368346 0.991657 -33.002802 0.424540 -6.610996 -1.154408 -63.867867 -0.011474 3.601320 0.409164 0.007774 -0.123806 0.202750 0.000000 0.000000 0.000000 0.000000 0.000000 0.000000 0.000000 19.855652 -18.672850 -0.076355 83.024174 -18.849506 -19.117407 4.014417 15.091266 0.007341 1.005075 3.618074 0.029241 0.097115 -0.030378 -0.000000 0.000000 0.000000 0.000000 0.000000 0.000000 0.000000 
-10.875757 16.313221 -2.180514 169.895458 81.202296 167.882332 -11.230367 5.901018 -0.537923 8.002157 17.868286 4.687941 0.145306 3.015187 45.318663 0.906856 -4.282515 17.681737 -2.188501 0.000000 -70.268900 8.564174 -1.385440 -1.274813 24.125404 -17.776210 -30.320733 2.389276 -1.229019 29.023069 -4.602621 -16.789893 -21.322263 -176.432600 0.000000 -20.321100 1.084478 -5.472788 -0.498211 -0.338956 -5.693143 -2.157960 -6.445190 -5.596726 3.196391 11.017784 -20.013910 -11.501909 -2.882294 -0.170901 -0.983750 0.000000 0.000000 0.000000 1.873126 16.313080 1.009814 -33.596033 0.866682 -6.322035 -1.209071 -63.223555 -0.010978 3.545382 0.493520 0.010685 -0.125852 0.195000 0.000000 0.000000 0.000000 0.000000 0.000000 0.000000 0.000000 19.762242 -18.457469 -0.068090 82.908388 -18.255958 -19.806303 4.016808 14.771381 0.007151 1.060035 3.502941 0.030036 0.096561 -0.031411 -0.000000 0.000000 0.000000 0.000000 0.000000 0.000000 0.000000 
-10.689989 16.302443 -2.161232 170.563417 81.198105 168.367883 -11.290671 5.790033 -0.533902 8.307565 17.230961 3.307507 0.316914 3.149382 48.294426 1.039556 -3.614463 18.561883 -2.059200 0.000000 -65.466800 8.599463 -1.414049 -1.435204 24.066629 -18.072410 -30.010116 2.352172 -1.360837 30.388328 -4.605907 -16.742939 -22.103435 -176.144700 -0.000000 -21.568400 1.236068 -5.405958 -0.341444 -0.315427 -5.630785 -2.144349 -6.443794 -5.536230 3.153007 11.001397 -19.798106 -11.457685 -2.880216 -0.171309 -0.973288 0.000000 0.000000 0.000000 1.933518 16.255987 1.026646 -34.276666 1.369852 -5.968374 -1.268115 -62.524899 -0.010784 3.576373 0.600888 0.014502 -0.129271 0.186358 0.000000 0.000000 0.000000 0.000000 0.000000 0.000000 0.000000 19.641316 -18.190955 -0.054790 82.736564 -17.562869 -20.441854 4.014856 14.468058 0.006988 1.078119 3.401262 0.029733 0.096234 -0.032688 -0.000000 0.000000 0.000000 0.000000 0.000000 0.000000 0.000000 
-10.509431 16.292336 -2.141961 171.252078 81.286499 168.914382 -11.354418 5.665363 -0.531026 8.512220 16.568671 1.806430 0.481589 3.286508 51.247275 1.162409 -2.601828 18.933936 -1.732900 -0.000001 -60.802801 8.622580 -1.453604 -1.590527 24.070660 -18.358369 -29.703822 2.325961 -1.484541 31.682997 -4.601606 -16.647869 -22.876571 -175.872300 0.000000 -22.204600 1.398479 -5.319628 -0.185385 -0.291653 -5.548504 -2.133482 -6.446530 -5.456134 3.102981 10.996481 -19.555552 -11.406352 -2.874854 -0.171583 -0.960827 0.000000 0.000000 0.000000 1.991674 16.201706 1.040923 -35.025742 1.941204 -5.544609 -1.330065 -61.787751 -0.010819 3.682986 0.724731 0.019418 -0.133770 0.176888 0.000000 0.000000 0.000000 0.000000 0.000000 0.000000 0.000000 19.497069 -17.884665 -0.038633 82.503975 -16.784558 -20.990442 4.008198 14.198723 0.006890 1.051509 3.336628 0.028431 0.096217 -0.034326 -0.000000 0.000000 0.000000 0.000000 0.000000 0.000000 0.000000 
-10.333425 16.283180 -2.122101 171.914714 81.464206 169.481130 -11.420690 5.530248 -0.526550 8.618039 15.886035 0.199554 0.642216 3.425750 54.129319 1.274519 -1.330370 18.838895 -1.260600 0.000000 -56.553000 8.633756 -1.500496 -1.730341 24.122451 -18.586796 -29.362735 2.307603 -1.592281 32.838655 -4.599418 -16.541719 -23.636135 -175.612800 -0.000000 -22.431700 1.556361 -5.216413 -0.041663 -0.270347 -5.448205 -2.126595 -6.453073 -5.358256 3.048236 11.004987 -19.297144 -11.346956 -2.866268 -0.171757 -0.946007 0.000000 0.000000 0.000000 2.045824 16.151991 1.051663 -35.825599 2.587197 -5.049002 -1.393987 -61.023449 -0.010975 3.843815 0.858951 0.025239 -0.138955 0.166593 -0.000000 0.000000 0.000000 0.000000 0.000000 0.000000 0.000000 19.336448 -17.550504 -0.022190 82.206892 -15.939815 -21.423333 3.996856 13.985026 0.006888 0.977047 3.327349 0.026233 0.096555 -0.036408 -0.000000 0.000000 0.000000 0.000000 0.000000 0.000000 0.000000 
-10.161164 16.275307 -2.101020 172.501754 81.723193 170.022527 -11.487441 5.386956 -0.516183 8.625795 15.178661 -1.492500 0.799846 3.563766 56.887545 1.376922 0.106758 18.350239 -0.706300 -0.000001 -53.083799 8.634168 -1.550873 -1.847585 24.207144 -18.723639 -28.957354 2.294654 -1.678721 33.805397 -4.606366 -16.453135 -24.374619 -175.362899 -0.000000 -22.391800 1.694287 -5.099359 0.079791 -0.254143 -5.332312 -2.124270 -6.462875 -5.244873 2.991901 11.027957 -19.034120 -11.279076 -2.854740 -0.171869 -0.928654 0.000000 0.000000 0.000000 2.093400 16.114510 1.057951 -36.660951 3.299437 -4.480612 -1.459991 -60.230639 -0.011131 4.031666 0.996561 0.031859 -0.144418 0.155484 0.000000 0.000000 0.000000 0.000000 0.000000 0.000000 0.000000 19.167828 -17.201567 -0.008800 81.843492 -15.046617 -21.714517 3.981310 13.849957 0.007000 0.857141 3.385491 0.023038 0.097256 -0.038972 -0.000000 0.000000 0.000000 0.000000 0.000000 0.000000 0.000000 
-9.991867 16.269097 -2.078179 172.965935 82.055193 170.491740 -11.552203 5.236869 -0.496259 8.540330 14.442594 -3.248460 0.953431 3.696491 59.476792 1.469057 1.608713 17.532580 -0.136100 -0.000000 -50.400600 8.624984 -1.600966 -1.936493 24.310924 -18.739809 -28.465441 2.285249 -1.740265 34.548884 -4.628781 -16.407213 -25.092418 -175.116199 -0.000000 -22.277100 1.798851 -4.970633 0.170362 -0.245450 -5.202557 -2.127021 -6.475833 -5.117552 2.936520 11.066397 -18.775540 -11.202031 -2.841408 -0.172036 -0.908550 0.000000 0.000000 0.000000 2.133983 16.094487 1.058974 -37.522064 4.065890 -3.844440 -1.529004 -59.400075 -0.011151 4.213759 1.128274 0.038677 -0.149739 0.143577 -0.000000 0.000000 0.000000 0.000000 0.000000 0.000000 0.000000 19.002858 -16.848162 -0.001683 81.413909 -14.128289 -21.839870 3.962169 13.824653 0.007224 0.698164 3.511690 0.018947 0.098293 -0.041978 -0.000000 0.000000 0.000000 0.000000 0.000000 0.000000 0.000000 
-9.824800 16.264933 -2.053271 173.272773 82.445913 170.853101 -11.611957 5.082240 -0.462104 8.369101 13.666801 -5.051088 1.100519 3.820732 61.865941 1.547833 3.076635 16.424641 0.390800 -0.000000 -48.121400 8.608189 -1.647561 -1.995540 24.424336 -18.629374 -27.883312 2.278312 -1.776372 35.062445 -4.668562 -16.412889 -25.787881 -174.868800 0.000000 -22.201300 1.861774 -4.835481 0.223167 -0.244959 -5.064103 -2.136088 -6.489789 -4.981520 2.881847 11.114495 -18.536912 -11.113309 -2.825911 -0.172279 -0.884830 0.000000 0.000000 0.000000 2.155408 16.067419 1.054515 -38.394308 4.926178 -3.161255 -1.600584 -58.553500 -0.010967 4.359293 1.265472 0.045890 -0.154518 0.130652 -0.000000 0.000000 0.000000 0.000000 0.000000 0.000000 0.000000 18.837304 -16.509945 -0.000578 80.918612 -13.191665 -21.753820 3.940379 13.908704 0.007566 0.499750 3.710927 0.013460 0.099705 -0.045351 -0.000000 0.000000 0.000000 0.000000 0.000000 0.000000 0.000000 
